<svg xmlns="http://www.w3.org/2000/svg" viewBox="0 0 640 300" width="100%" height="auto" font-family="ui-monospace, 'Courier New', monospace">
<title>Milliseconds per training step across smoke-test configurations</title>
<desc>Baseline configurations train at roughly 530 to 650 milliseconds per step. Doubling sequence length to 2048 in smoke_008 raises step time to 1556 milliseconds, which is why that run hit the wallclock cap before finishing.</desc>
<line x1="130.0" y1="10" x2="130.0" y2="274" stroke="#e8e8e8" stroke-width="1"/>
<text x="130.0" y="290" font-size="10" fill="#999" text-anchor="middle">0</text>
<line x1="235.9" y1="10" x2="235.9" y2="274" stroke="#e8e8e8" stroke-width="1"/>
<text x="235.9" y="290" font-size="10" fill="#999" text-anchor="middle">400</text>
<line x1="341.8" y1="10" x2="341.8" y2="274" stroke="#e8e8e8" stroke-width="1"/>
<text x="341.8" y="290" font-size="10" fill="#999" text-anchor="middle">800</text>
<line x1="447.6" y1="10" x2="447.6" y2="274" stroke="#e8e8e8" stroke-width="1"/>
<text x="447.6" y="290" font-size="10" fill="#999" text-anchor="middle">1200</text>
<line x1="553.5" y1="10" x2="553.5" y2="274" stroke="#e8e8e8" stroke-width="1"/>
<text x="553.5" y="290" font-size="10" fill="#999" text-anchor="middle">1600</text>
<text x="355.0" y="298" font-size="10" fill="#999" text-anchor="middle">ms / step</text>
<text x="122" y="29.5" font-size="10.5" fill="#111" text-anchor="end">smoke_001</text>
<rect x="130" y="16.6" width="141.7" height="19.8" fill="#4a6fa5"/>
<text x="277.7" y="29.5" font-size="9.5" fill="#111">535 ms</text>
<text x="122" y="62.5" font-size="10.5" fill="#111" text-anchor="end">smoke_002</text>
<rect x="130" y="49.6" width="171.0" height="19.8" fill="#4a6fa5"/>
<text x="307.0" y="62.5" font-size="9.5" fill="#111">646 ms</text>
<text x="122" y="95.5" font-size="10.5" fill="#111" text-anchor="end">smoke_003</text>
<rect x="130" y="82.6" width="167.7" height="19.8" fill="#4a6fa5"/>
<text x="303.7" y="95.5" font-size="9.5" fill="#111">633 ms</text>
<text x="122" y="128.5" font-size="10.5" fill="#111" text-anchor="end">smoke_004</text>
<rect x="130" y="115.6" width="171.9" height="19.8" fill="#4a6fa5"/>
<text x="307.9" y="128.5" font-size="9.5" fill="#111">650 ms</text>
<text x="122" y="161.5" font-size="10.5" fill="#111" text-anchor="end">smoke_005</text>
<rect x="130" y="148.6" width="140.7" height="19.8" fill="#4a6fa5"/>
<text x="276.7" y="161.5" font-size="9.5" fill="#111">532 ms</text>
<text x="122" y="194.5" font-size="10.5" fill="#111" text-anchor="end">smoke_006</text>
<rect x="130" y="181.6" width="167.0" height="19.8" fill="#4a6fa5"/>
<text x="303.0" y="194.5" font-size="9.5" fill="#111">631 ms</text>
<text x="122" y="227.5" font-size="10.5" fill="#111" text-anchor="end">smoke_007</text>
<rect x="130" y="214.6" width="158.8" height="19.8" fill="#4a6fa5"/>
<text x="294.8" y="227.5" font-size="9.5" fill="#111">600 ms</text>
<text x="122" y="260.5" font-size="10.5" fill="#111" text-anchor="end">smoke_008</text>
<rect x="130" y="247.6" width="411.9" height="19.8" fill="#b5533c"/>
<text x="547.9" y="260.5" font-size="9.5" fill="#111">1556 ms — did not finish (386/500)</text>
</svg>